<?xml version="1.0" encoding="utf-8"?>
<!-- Generator: Adobe Illustrator 21.1.0, SVG Export Plug-In . SVG Version: 6.00 Build 0)  -->
<svg version="1.1" id="Layer_1" xmlns="http://www.w3.org/2000/svg" xmlns:xlink="http://www.w3.org/1999/xlink" x="0px" y="0px"
   viewBox="0 0 200 200" style="enable-background:new 0 0 200 200;" xml:space="preserve">
<style type="text/css">
  .st0{fill:#FFFFFF;}
</style>
<g id="XMLID_9_">
  <polygon id="XMLID_10_" class="st0" points="89.6,77.5 92.9,76 95,69.7 	"/>
  <path id="XMLID_22_" class="st0" d="M100,8.6c-51.2,0-92.7,41.5-92.7,92.8c0,19.4,6,37.4,16.1,52.3l13.5-9.4l8.4-6.7
    c11.9-9.6,20.5-22.7,24.6-37.4l-10.6,1.1L45.8,98l31.3-15.2l10.9-14.9h1c3.6,0,6.9-1.6,9.1-4.4l18.5-22.9l3.2,4l-3.8-0.2l5.6,2.4
    l4,5l-0.9,3.1l1.9,3l-2.4-1.2l-5.5,18.9l14.6-10.6l-1.1,6.9c0,0-20.4,17.8-9.7,33.5c10.6,15.8,17.8,27.8,19.2,37.3l-9.5-6.6
    c0,0,4,12,1.4,35.3l-5.2-6.3c0,0,1,11.5,0.6,24.3c37-12.2,63.8-47,63.8-88.1C192.8,50.1,151.2,8.6,100,8.6z"/>
</g>
</svg>
